<svg width="164" height="120" viewBox="0 0 164 120" fill="none" xmlns="http://www.w3.org/2000/svg">
<g clip-path="url(#clip0_6_2)">
<path fill-rule="evenodd" clip-rule="evenodd" d="M137.275 57.0007L137.288 56.448L137.296 55.8949L137.299 55.363V55.351L137.296 54.7978L137.288 54.2451L137.275 53.692L137.256 53.1388L137.231 52.5861L137.202 52.0339L137.168 51.4812L137.127 50.9295L137.081 50.3777L137.03 49.8264L136.973 49.276L136.911 48.7256L136.843 48.1762L136.769 47.6272L136.69 47.0792L136.606 46.532L136.516 45.9856L136.42 45.4401L136.319 44.8956L136.212 44.3522L136.1 43.8098L135.982 43.2686L135.859 42.7287L135.73 42.1901L135.596 41.6528L135.456 41.1169L135.311 40.5825L135.16 40.0496L135.003 39.5184L134.842 38.9887L134.675 38.4607L134.503 37.9345L134.326 37.4101L134.143 36.8875L133.955 36.3668L133.762 35.8482L133.564 35.3315L133.361 34.8167L133.153 34.3041L132.943 33.8019L132.725 33.2934L132.502 32.7871L132.274 32.2829L132.042 31.7809L131.803 31.2812L131.561 30.7838L131.312 30.2888L131.06 29.7964L130.803 29.3063L130.539 28.8189L130.272 28.3342L130 27.8521L129.722 27.3728L129.44 26.8963L129.153 26.4227L128.861 25.952L128.564 25.4843L128.264 25.0197L127.957 24.5581L127.647 24.0997L127.332 23.6446L127.011 23.1925L126.687 22.7439L126.358 22.2985L126.024 21.8565L125.686 21.418L125.344 20.9828L124.998 20.5512L124.647 20.123L124.291 19.6985L123.932 19.2776L123.568 18.8603L123.201 18.4466L122.829 18.0367L122.454 17.6304L122.074 17.2279L121.691 16.8291L121.306 16.4359L121.08 16.2093L120.687 15.8202L120.291 15.4347L119.89 15.0532L119.486 14.6755L119.078 14.3016L118.666 13.9318L118.251 13.566L117.832 13.2043L117.409 12.8469L116.983 12.4935L116.554 12.1444L116.12 11.7997L115.684 11.4593L115.243 11.1234L114.8 10.7919L114.353 10.4649L113.903 10.1423L113.449 9.82444L112.993 9.51117L112.532 9.20258L112.069 8.89867L111.604 8.59944L111.135 8.30503L110.663 8.01544L110.188 7.73061L109.71 7.45066L109.23 7.17551L108.746 6.90529L108.26 6.63997L107.772 6.37956L107.281 6.12411L106.787 5.87361L106.291 5.62803L105.793 5.3874L105.292 5.15178L104.79 4.92112L104.284 4.69541L103.779 4.47571L103.485 4.35029L102.974 4.13731L102.462 3.9293L101.947 3.7263L101.43 3.52839L100.911 3.33561L100.39 3.14796L99.8677 2.96553L99.3428 2.78833L98.8165 2.61639L98.2884 2.44977L97.7589 2.28848L97.2275 2.13259L96.6943 1.98209L96.1601 1.83701L95.6241 1.69738L95.0867 1.56325L94.5479 1.43458L94.0082 1.31144L93.4671 1.19381L92.9246 1.08173L92.3812 0.97518L91.8363 0.874195L91.2911 0.778778L90.7444 0.688893L90.1973 0.604572L89.6492 0.525843L89.1002 0.452628L88.5508 0.384973L88.0004 0.322861L87.45 0.266288L86.8987 0.215196L86.3474 0.169618L85.7952 0.129509L85.243 0.094856L84.6903 0.0656079L84.1381 0.0418028L83.5854 0.0233491L83.0322 0.0102537L82.4795 0.0024883L81.9352 0L81.3825 0.00268977L80.8293 0.0106637L80.2762 0.0239641L79.7235 0.0426264L79.1708 0.0666647L78.6181 0.096093L78.0659 0.130979L77.5141 0.171301L76.9624 0.217137L76.4111 0.268433L75.8607 0.32524L75.3103 0.387582L74.7609 0.455466L74.2119 0.528887L73.6638 0.607847L73.1162 0.6924L72.57 0.782489L72.0248 0.878147L71.48 0.979359L70.9365 1.08612L70.3945 1.19844L69.8534 1.31627L69.3132 1.43963L68.7744 1.56852L68.2375 1.70288L67.7015 1.84271L67.1668 1.98801L66.6341 2.13874L66.1027 2.29484L65.5732 2.45633L65.045 2.62313L64.5192 2.79526L63.9948 2.97267L63.4722 3.1553L62.9515 3.34311L62.4326 3.53609L61.9161 3.73418L61.4014 3.93734L60.889 4.14546L60.3863 4.3552L59.8781 4.57324L59.3717 4.79622L58.8672 5.02419L58.3655 5.25713L57.8656 5.49502L57.3681 5.73787L56.8733 5.98573L56.3808 6.23849L55.8907 6.49617L55.4033 6.7588L54.9187 7.02634L54.4365 7.29875L53.9574 7.57611L53.4807 7.85829L53.0072 8.14529L52.5366 8.43702L52.0686 8.7337L51.604 9.03497L51.1426 9.34101L50.6844 9.65173L50.229 9.96704L49.7768 10.287L49.3284 10.6115L48.8832 10.9406L48.4407 11.2741L48.0025 11.612L47.5674 11.9545L47.1357 12.3011L46.7076 12.652L46.283 13.0072L45.862 13.3666L45.4448 13.7301L45.0311 14.0977L44.6211 14.4693L44.2149 14.8447L43.8123 15.2242L43.4135 15.6075L43.0204 15.9927L42.7938 16.2181L42.4046 16.6111L42.0192 17.0078L41.6376 17.4083L41.2599 17.8126L40.8861 18.2206L40.5163 18.6323L40.1504 19.0477L39.7888 19.4666L39.4313 19.8892L39.078 20.3154L38.7289 20.745L38.3841 21.1783L38.0438 21.615L37.7078 22.0551L37.3763 22.4987L37.0493 22.9456L36.7268 23.3958L36.4089 23.8492L36.0956 24.3059L35.787 24.7657L35.4831 25.2287L35.1839 25.6947L34.8895 26.1638L34.5999 26.6358L34.315 27.1106L34.035 27.5883L33.7599 28.0689L33.4897 28.5522L33.2244 29.0381L32.964 29.5266L32.7085 30.0178L32.458 30.5113L32.2125 31.0073L31.9719 31.5058L31.7362 32.0065L31.5055 32.5094L31.2798 33.0145L31.0601 33.5193L30.9348 33.8135L30.7218 34.3242L30.5138 34.8369L30.3108 35.3517L30.1129 35.8685L29.9201 36.3874L29.7325 36.9082L29.55 37.4309L29.3728 37.9554L29.2009 38.4817L29.0343 39.0098L28.873 39.5396L28.7171 40.0709L28.5666 40.6038L28.4215 41.1383L28.2819 41.6742L28.1477 42.2116L28.0191 42.7503L27.8959 43.2902L27.7783 43.8315L27.6662 44.3738L27.5597 44.9174L27.4587 45.4619L27.3632 46.0074L27.2734 46.5538L27.1891 47.1009L27.1103 47.6494L27.0371 48.198L26.9695 48.7474L26.9074 49.2978L26.8508 49.8482L26.7997 50.3995L26.7541 50.9512L26.714 51.503L26.6794 52.0552L26.6501 52.6079L26.6263 53.1606L26.6078 53.7133L26.5948 54.266L26.587 54.8191L26.5845 55.363L26.5872 55.9162L26.5952 56.4689L26.6085 57.022L26.6271 57.5752L26.6512 58.1279L26.6806 58.6805L26.7155 59.2328L26.7558 59.7845L26.8016 60.3363L26.8529 60.8876L26.9097 61.438L26.9721 61.9883L27.04 62.5378L27.1134 63.0868L27.1923 63.6348L27.2769 64.182L27.367 64.7282L27.4627 65.2739L27.5638 65.8183L27.6706 66.3617L27.7829 66.9042L27.9008 67.4453L28.0241 67.9855L28.153 68.5238L28.2874 69.0612L28.4272 69.5967L28.5725 70.1314L28.7232 70.6641L28.8794 71.1955L29.0408 71.7255L29.2076 72.2532L29.3797 72.7795L29.5571 73.3039L29.7398 73.8265L29.9276 74.3472L30.1206 74.8656L30.3187 75.3826L30.5218 75.8973L30.73 76.4102L30.9397 76.9124L31.1578 77.421L31.3807 77.9269L31.6087 78.4314L31.8416 78.9327L32.0795 79.433L32.3224 79.9301L32.5702 80.4254L32.823 80.9174L33.0807 81.408L33.3434 81.8954L33.6109 82.3795L33.8833 82.8618L34.1607 83.3413L34.4429 83.8175L34.7298 84.2914L35.0216 84.7621L35.3182 85.2296L35.6195 85.6942L35.9256 86.1561L36.2363 86.6143L36.4218 86.8821C37.4176 86.7834 38.4135 86.688 39.4093 86.5948L39.2853 86.4276L38.9763 86L38.6717 85.5696L38.3715 85.1355L38.0756 84.6991L37.7843 84.2595L37.4975 83.8166L37.2152 83.3714L36.9375 82.9229L36.6643 82.4721L36.3956 82.0186L36.1316 81.5618L35.8722 81.1022L35.6174 80.6408L35.3673 80.1757L35.1219 79.7092L34.8811 79.2394L34.645 78.7673L34.4136 78.2934L34.1868 77.8167L33.9648 77.3381L33.7475 76.8572L33.5348 76.374L33.3269 75.889L33.1269 75.4095L32.9284 74.9203L32.7347 74.4287L32.5458 73.9363L32.362 73.4415L32.183 72.9453L32.0091 72.4473L31.8402 71.9474L31.6763 71.4457L31.5175 70.9435L31.3638 70.4385L31.2152 69.9326L31.0718 69.4249L30.9336 68.9162L30.8006 68.4057L30.6728 67.8942L30.5502 67.3814L30.4329 66.8671L30.3208 66.352L30.214 65.8354L30.1125 65.3179L30.0162 64.7995L29.9253 64.2802L29.8396 63.7599L29.7592 63.2387L29.6841 62.7166L29.6144 62.1936L29.5498 61.6701L29.4905 61.1461L29.4365 60.6212L29.3877 60.0959L29.3442 59.57L29.3059 59.0438L29.2727 58.517L29.2447 57.9903L29.222 57.4626L29.2043 56.9349L29.1917 56.4068L29.1842 55.8791L29.1817 55.351L29.1842 54.8312L29.1917 54.303L29.2044 53.7754L29.2221 53.2472L29.2449 52.72L29.273 52.1928L29.3061 51.6661L29.3445 51.1398L29.3881 50.6135L29.4369 50.0881L29.491 49.5637L29.5503 49.0393L29.6149 48.5158L29.6848 47.9927L29.7599 47.4706L29.8403 46.9494L29.926 46.4292L30.017 45.9098L30.1133 45.3913L30.2149 44.8738L30.3217 44.3575L30.4338 43.8421L30.5512 43.3281L30.6739 42.8152L30.8017 42.3036L30.9348 41.7934L31.0731 41.2845L31.2165 40.7771L31.3651 40.271L31.5188 39.7665L31.6776 39.2635L31.8416 38.7622L32.0105 38.2624L32.1845 37.7644L32.3635 37.268L32.5474 36.7735L32.7362 36.2808L32.9299 35.7898L33.1284 35.3007L33.3318 34.8136L33.4494 34.5377L33.6612 34.0512L33.8767 33.5692L34.0968 33.0895L34.3217 32.612L34.5512 32.1368L34.7854 31.664L35.0244 31.1935L35.268 30.7255L35.5163 30.2601L35.7692 29.7971L36.0267 29.3368L36.2889 28.879L36.5556 28.424L36.827 27.9718L37.103 27.5224L37.3835 27.0758L37.6685 26.6321L37.958 26.1913L38.2521 25.7535L38.5504 25.3187L38.8533 24.887L39.1605 24.4583L39.472 24.0327L39.7879 23.6104L40.1081 23.1911L40.4325 22.7752L40.761 22.3625L41.0938 21.9532L41.4306 21.5471L41.7714 21.1443L42.1163 20.745L42.4652 20.3491L42.818 19.9565L43.1747 19.5674L43.5351 19.1818L43.8994 18.7996L44.2674 18.4209L44.6391 18.0458L44.8519 17.8342L45.231 17.4628L45.6118 17.097L45.9961 16.735L46.3838 16.3767L46.7752 16.0223L47.1695 15.6718L47.5679 15.3253L47.9691 14.9827L48.374 14.6442L48.7822 14.3098L49.1935 13.9795L49.6082 13.6535L50.0261 13.3316L50.4472 13.014L50.8715 12.7007L51.2987 12.3917L51.7295 12.0871L52.1627 11.7869L52.5996 11.4911L53.0392 11.1998L53.4816 10.913L53.9273 10.6306L54.3753 10.3529L54.8265 10.0797L55.2805 9.81105L55.7369 9.54703L56.1964 9.28764L56.6583 9.03284L57.1225 8.78276L57.5895 8.53732L58.0588 8.29651L58.5309 8.06042L59.0048 7.82901L59.4815 7.60229L59.9601 7.38024L60.4414 7.16287L60.9246 6.95032L61.4097 6.7423L61.8892 6.54235L62.3784 6.34379L62.8695 6.15014L63.3619 5.96131L63.8567 5.77744L64.3534 5.59847L64.8514 5.42456L65.3508 5.2556L65.8525 5.09174L66.3552 4.93293L66.8602 4.77926L67.366 4.63069L67.8738 4.48729L68.3825 4.34906L68.8925 4.21601L69.4045 4.08821L69.9173 3.96562L70.4316 3.84831L70.9467 3.73622L71.4628 3.62943L71.9808 3.52791L72.4992 3.43167L73.0185 3.34072L73.5387 3.25506L74.0599 3.17467L74.5821 3.09957L75.1046 3.02978L75.6281 2.96523L76.1526 2.90596L76.6775 2.85195L77.2028 2.80319L77.7286 2.75964L78.2549 2.72131L78.7817 2.68818L79.3084 2.66021L79.8361 2.63741L80.3637 2.6197L80.8914 2.60713L81.4196 2.59962L81.9477 2.59716L82.467 2.59967L82.9952 2.6072L83.5233 2.61983L84.051 2.63755L84.5786 2.6604L85.1058 2.6884L85.6321 2.72158L86.1589 2.75996L86.6847 2.80354L87.2101 2.85235L87.7349 2.90641L88.2589 2.96572L88.7829 3.03032L89.3055 3.10017L89.8276 3.17533L90.3488 3.25574L90.869 3.34146L91.3883 3.43248L91.9072 3.52874L92.4247 3.63032L92.9408 3.73719L93.456 3.8493L93.9702 3.96667L94.483 4.08929L94.9945 4.21716L95.505 4.35024L96.0142 4.48848L96.521 4.63193L97.0269 4.78051L97.5323 4.93427L98.0345 5.09313L98.5362 5.25699L99.0357 5.426L99.5342 5.59996L100.03 5.77892L100.525 5.96284L101.018 6.15167L101.509 6.34532L101.997 6.54388L102.484 6.74722L102.76 6.86489L103.247 7.07674L103.73 7.29221L104.209 7.51241L104.686 7.73724L105.162 7.96675L105.635 8.20098L106.105 8.43989L106.573 8.68348L107.038 8.93175L107.501 9.18466L107.962 9.44224L108.419 9.70441L108.874 9.97116L109.326 10.2425L109.776 10.5185L110.223 10.799L110.666 11.084L111.107 11.3735L111.545 11.6675L111.98 11.9659L112.411 12.2688L112.84 12.576L113.266 12.8876L113.688 13.2034L114.107 13.5236L114.523 13.848L114.936 14.1765L115.345 14.5092L115.752 14.846L116.154 15.1869L116.554 15.5318L116.949 15.8806L117.343 16.2335L117.731 16.5901L118.117 16.9506L118.498 17.3149L118.878 17.6829L119.253 18.0545L119.464 18.2673L119.835 18.6465L120.201 19.0273L120.563 19.4116L120.922 19.7993L121.276 20.1905L121.627 20.5852L121.973 20.9832L122.315 21.3846L122.654 21.7894L122.989 22.1975L123.319 22.6089L123.645 23.0236L123.966 23.4415L124.284 23.8626L124.597 24.2868L124.907 24.7143L125.211 25.1448L125.511 25.5784L125.807 26.0151L126.098 26.4547L126.386 26.8972L126.668 27.3426L126.945 27.7909L127.219 28.242L127.488 28.6959L127.751 29.1525L128.011 29.6117L128.266 30.0735L128.515 30.538L128.761 31.005L129.002 31.4744L129.238 31.9462L129.47 32.4204L129.696 32.897L129.918 33.3757L130.135 33.8567L130.349 34.3399L130.556 34.8251L130.756 35.3044L130.955 35.7936L131.148 36.2846L131.337 36.7775L131.521 37.2721L131.7 37.7684L131.874 38.2666L132.043 38.7664L132.207 39.2678L132.366 39.7708L132.519 40.2754L132.668 40.7815L132.811 41.289L132.949 41.7979L133.082 42.3081L133.21 42.8198L133.333 43.3327L133.45 43.8467L133.562 44.362L133.669 44.8784L133.77 45.3959L133.866 45.9143L133.958 46.4338L134.043 46.9541L134.124 47.4753L134.198 47.9974L134.268 48.5204L134.333 49.0439L134.392 49.5679L134.446 50.0928L134.495 50.6181L134.539 51.144L134.577 51.6702L134.61 52.197L134.638 52.7237L134.661 53.2514L134.679 53.7791L134.691 54.3072L134.699 54.8349L134.701 55.351V55.363L134.699 55.8828L134.691 56.4109L134.679 56.9391L134.661 57.4668L134.638 57.994L134.61 58.5212L134.577 59.0479L134.538 59.5742L134.495 60.1005L134.446 60.6258L134.392 61.1507L134.333 61.6747L134.268 62.1982L134.198 62.7212L134.123 63.2434L134.043 63.7645L133.957 64.2848L133.866 64.8041L133.769 65.323L133.668 65.84L133.561 66.3566L133.449 66.8717L133.332 67.386L133.209 67.8988L133.081 68.4103L132.948 68.9208L132.81 69.4295L132.666 69.9368L132.518 70.4432L132.364 70.9477L132.205 71.4508L132.042 71.9516L131.872 72.4515L131.699 72.9495L131.519 73.4466L131.336 73.9404L131.147 74.4329L130.953 74.9244L130.755 75.4137L130.551 75.9006L130.433 76.1762L130.222 76.6626L130.007 77.1449L129.786 77.6244L129.561 78.102L129.332 78.5774L129.097 79.0499L128.859 79.5206L128.615 79.988L128.367 80.4536L128.114 80.9169L127.857 81.3774L127.594 81.8351L127.328 82.2896L127.056 82.7422L126.78 83.1911L126.5 83.6382L126.215 84.082L125.925 84.5226L125.631 84.9604L125.332 85.395L125.03 85.8267L124.723 86.2562L124.474 86.5948C125.47 86.6875 126.466 86.7829 127.461 86.8821L127.474 86.8649L127.788 86.4081L128.096 85.9481L128.4 85.4853L128.699 85.0192L128.993 84.5504L129.283 84.0783L129.568 83.603L129.847 83.1254L130.123 82.6445L130.393 82.1617L130.658 81.6758L130.918 81.1875L131.175 80.6959L131.425 80.2025L131.671 79.7064L131.911 79.2084L132.147 78.7076L132.377 78.2044L132.603 77.699L132.823 77.1945L132.948 76.9008L133.161 76.3898L133.369 75.8774L133.573 75.3622L133.77 74.8457L133.963 74.3263L134.15 73.8056L134.333 73.283L134.51 72.7586L134.682 72.2319L134.848 71.7042L135.01 71.1747L135.166 70.6433L135.316 70.1105L135.461 69.5754L135.601 69.0399L135.735 68.5025L135.864 67.9637L135.987 67.424L136.104 66.8824L136.216 66.3404L136.323 65.7965L136.424 65.2521L136.519 64.7069L136.609 64.1602L136.694 63.6131L136.773 63.065L136.846 62.516L136.913 61.9666L136.975 61.4162L137.032 60.8654L137.083 60.3145L137.128 59.7628L137.168 59.211L137.204 58.6588L137.233 58.1061L137.256 57.5534L137.275 57.0007ZM100.004 107.701L93.4972 106.856L93.4518 106.866L92.9366 106.978L92.4201 107.085L91.9026 107.187L91.3842 107.282L90.8648 107.373L90.3441 107.459L89.8229 107.54L89.3013 107.614L88.7782 107.684L88.2547 107.749L87.7308 107.808L87.2059 107.862L86.6805 107.911L86.1547 107.955L85.6284 107.993L85.1017 108.026L84.5745 108.054L84.0473 108.077L83.5196 108.094L82.9915 108.107L82.4638 108.115L81.9352 108.116L81.4158 108.115L80.8877 108.107L80.3596 108.094L79.8319 108.077L79.3042 108.053L78.7775 108.026L78.2507 107.993L77.724 107.954L77.1982 107.91L76.6728 107.862L76.1479 107.807L75.624 107.749L75.1005 107.683L74.5774 107.614L74.0553 107.539L73.5341 107.459L73.0139 107.373L72.4945 107.282L71.9757 107.185L71.4582 107.083L70.9421 106.977L70.4269 106.865L69.9127 106.747L69.3998 106.625L68.8884 106.497L68.3778 106.364L67.8692 106.225L67.3614 106.082L66.8555 105.933L66.351 105.78L65.8479 105.621L65.3466 105.457L64.8472 105.288L64.3487 105.114L63.8526 104.935L63.3582 104.751L62.8653 104.562L62.3742 104.369L61.8855 104.17L61.3981 103.967L61.1225 103.849L60.6356 103.637L60.1537 103.422L59.6743 103.201L59.1966 102.977L58.7213 102.747L58.2483 102.513L57.7781 102.274L57.6266 102.195L51.1073 101.348L51.3501 101.512L51.8129 101.815L52.2794 102.114L52.7483 102.409L53.2203 102.698L53.6952 102.983L54.1728 103.264L54.6533 103.538L55.1369 103.809L55.6224 104.074L56.1112 104.334L56.6023 104.589L57.0957 104.84L57.5918 105.086L58.0903 105.327L58.5911 105.562L59.0938 105.793L59.5992 106.019L60.1037 106.238L60.3979 106.364L60.9084 106.577L61.4213 106.784L61.9364 106.988L62.453 107.186L62.9719 107.378L63.4926 107.566L64.0152 107.749L64.5401 107.926L65.0663 108.098L65.594 108.264L66.124 108.426L66.6554 108.582L67.1881 108.732L67.7228 108.877L68.2588 109.017L68.7962 109.151L69.335 109.279L69.8747 109.403L70.4158 109.521L70.9583 109.633L71.5017 109.738L72.0461 109.84L72.5918 109.935L73.1385 110.025L73.6856 110.109L74.2337 110.188L74.7827 110.261L75.3321 110.329L75.882 110.391L76.4328 110.448L76.9841 110.499L77.5354 110.544L78.0877 110.585L78.6399 110.619L79.1921 110.648L79.7448 110.672L80.298 110.69L80.8506 110.704L81.4033 110.711L81.9477 110.714L82.5008 110.711L83.0535 110.703L83.6067 110.69L84.1598 110.671L84.7121 110.648L85.2652 110.618L85.8174 110.582L86.3692 110.543L86.921 110.497L87.4723 110.446L88.0226 110.389L88.5725 110.327L89.122 110.259L89.671 110.185L90.2195 110.106L90.7666 110.021L91.3128 109.932L91.8586 109.836L92.4029 109.734L92.9464 109.628L93.4888 109.515L94.03 109.397L94.5701 109.274L95.1085 109.145L95.6459 109.011L96.1814 108.872L96.7156 108.726L97.2493 108.575L97.7797 108.419L98.3097 108.258L98.8378 108.091L99.3637 107.919L99.8881 107.742L100.004 107.701ZM120.244 86.2219C127.053 77.7824 131.131 67.0459 131.131 55.357C131.131 28.1907 109.107 6.16826 81.9417 6.16826C54.7751 6.16826 32.7528 28.1908 32.7528 55.357C32.7528 67.0459 36.8299 77.7824 43.6396 86.2219C69.1742 84.0881 94.7086 84.0881 120.244 86.2219ZM121.428 74.4083C121.428 76.2406 119.878 77.7912 117.904 77.7912C116.072 77.7912 114.521 76.2406 114.521 74.4083V46.076L105.5 57.4932C104.796 58.3391 103.527 58.9029 102.4 58.6208C101.13 58.4799 100.144 57.7753 99.7209 56.6477L91.1229 36.0681V74.4083C91.1229 76.2406 89.5723 77.7912 87.74 77.7912C85.7665 77.7912 84.3567 76.2406 84.3567 74.4083V19.1535C84.3567 17.603 85.4848 16.1935 87.0349 15.9116C88.5855 15.6297 90.1361 16.4754 90.8408 17.8849L103.668 48.7539L115.367 34.2357C116.213 33.1081 117.763 32.5443 119.032 33.1081C120.442 33.531 121.428 34.7995 121.428 36.3501V74.4083ZM79.723 74.2698C79.723 76.242 78.1738 77.7912 76.343 77.7912C74.3713 77.7912 72.8225 76.242 72.8225 74.2698V36.1048L64.3724 56.6662C63.809 57.7929 62.8232 58.4971 61.6965 58.6379C60.4294 58.7788 59.3027 58.3562 58.4577 57.3704L49.4442 46.1039V74.2698C49.4442 76.242 47.8954 77.7912 46.0644 77.7912C44.2336 77.7912 42.6845 76.242 42.6845 74.2698V36.2457C42.6845 34.8373 43.5294 33.5699 44.9378 33.1473C46.3462 32.584 47.7541 33.0066 48.74 34.1332L60.2886 48.7798L73.1042 17.9376C73.8079 16.3884 75.3571 15.5435 76.9063 15.966C78.5963 16.2476 79.723 17.6559 79.723 19.2051V74.2698Z" fill="#F2CD00"/>
<path fill-rule="evenodd" clip-rule="evenodd" d="M0 93.626C3.16365 93.0553 6.33179 92.5183 9.50398 92.0143C10.5767 91.8443 11.6499 91.6775 12.7236 91.5149L13.299 91.4278C58.8046 84.5875 105.079 84.5875 150.584 91.4278C150.779 91.4574 150.974 91.4866 151.169 91.5163C152.016 91.6441 152.861 91.7752 153.708 91.9077C157.104 92.4428 160.496 93.015 163.883 93.626L160.598 111.848L160.159 114.279L149.666 119.526V112.517C147.547 112.188 145.427 111.874 143.304 111.576C104.933 106.181 66.0276 105.872 27.5947 110.647C26.5869 110.772 25.5792 110.901 24.572 111.033C23.2937 111.2 22.0159 111.374 20.7387 111.553C18.563 111.859 16.389 112.18 14.2168 112.517V119.526L3.72379 114.279L0 93.626ZM74.4022 102.831L71.8185 102.882L71.7078 97.2845L67.2631 91.2554L70.3462 91.1938L72.9586 95.1919L75.4103 91.0933L78.4934 91.0326L74.2915 97.2331L74.4022 102.831ZM98.5714 103.028L96.5334 91.286L93.4679 91.2249L90.8754 99.3929L88.5933 91.1281L85.5273 91.0674L83.0206 102.735L85.8628 102.791L87.4013 94.7402L89.5314 102.864L92.0633 102.914L94.5149 94.882L95.7324 102.987L98.5644 103.044V103.044L101.334 103.184L102.297 100.869L106.753 101.095L107.477 103.494L110.247 103.634L106.089 91.6942L103.904 91.5835L98.5714 103.028ZM61.4435 99.0329L61.4606 99.0325L64.4242 103.098L67.6944 102.962L64.1583 98.7985C65.6236 98.3756 66.7568 97.0172 66.6738 95.0381C66.5812 92.8176 64.8305 91.3564 62.9371 91.4352L61.1293 91.5107L60.4928 91.5371L58.5475 91.6187L59.0363 103.323L61.6181 103.215L61.4435 99.0329ZM50.733 91.9536C53.9643 91.7322 56.939 94.3265 57.16 97.5579C57.3814 100.789 54.7876 103.764 51.5562 103.985C48.3248 104.206 45.3497 101.612 45.1286 98.3807C44.9075 95.1498 47.5016 92.1741 50.733 91.9536ZM115.895 102.139C114.623 102.043 113.617 101.414 113.653 100.017L110.991 99.815C110.792 102.668 113.049 104.117 115.626 104.313C118.014 104.494 120.547 103.666 120.756 100.918C120.955 98.2755 118.615 97.5486 116.715 96.9593C115.415 96.5563 114.322 96.2167 114.385 95.3731C114.452 94.497 115.348 94.3057 116.069 94.3603C117.151 94.4423 118.004 94.818 118.049 96.0481L120.712 96.25C120.828 93.5802 118.744 92.3516 116.339 92.1695C114.209 92.0074 111.89 92.9719 111.708 95.3772C111.518 97.8766 113.744 98.609 115.615 99.2238C116.972 99.6704 118.143 100.055 118.071 101.008C117.991 102.056 116.702 102.2 115.895 102.139ZM131.101 96.0272L127.775 95.6997L126.857 105.027L124.285 104.773L125.203 95.4467L121.876 95.1192L122.106 92.7875L131.33 93.696L131.101 96.0272ZM45.0327 104.266L41.5953 92.8371L38.5441 93.1442L36.9513 101.565L33.6931 93.6334L30.642 93.9411L29.554 105.826L32.3824 105.54L32.9435 97.3628L36.0335 105.172L38.5533 104.918L40.0229 96.6494L42.2044 104.55L45.0327 104.266ZM62.5914 93.4843C63.3489 93.4523 64.168 94.0736 64.2125 95.141C64.2592 96.2598 63.493 96.9121 62.736 96.944L61.3587 97.0015L61.2141 93.5417L62.5914 93.4843ZM138.193 103.939L134.019 103.443L134.297 101.099L138.301 101.575L138.578 99.2484L134.574 98.7721L134.849 96.4622L139.023 96.9593L139.3 94.6327L132.56 93.8308L131.176 105.464L137.917 106.266L138.193 103.939ZM24.1353 104.151L28.3047 103.616L28.6031 105.939L21.8704 106.804L20.3787 95.1845L27.1113 94.32L27.4097 96.6438L23.2402 97.1794L23.5364 99.4865L27.5349 98.9727L27.8333 101.297L23.8347 101.81L24.1353 104.151ZM51.3797 101.407C53.1842 101.283 54.7042 99.5217 54.5809 97.7168C54.4572 95.9123 52.7125 94.3904 50.9081 94.5146C49.1032 94.6378 47.5822 96.383 47.7054 98.1875C47.8291 99.9919 49.5748 101.53 51.3797 101.407ZM103.143 98.7902L106.103 98.9398L104.833 94.7013L103.143 98.7902ZM143 102.732L142.982 102.729L142.397 106.874L139.839 106.513L141.474 94.913L143.402 95.185L144.033 95.2744L145.825 95.5269C147.701 95.7914 149.159 97.5454 148.848 99.7459C148.572 101.707 147.212 102.838 145.694 102.99L148.419 107.724L145.178 107.267L143 102.732ZM16.8675 95.7094L20.922 106.933L18.1134 107.372L15.5049 99.6009L14.4878 107.939L11.9856 108.329L8.47495 100.699L8.35992 108.896L5.55135 109.333L5.99058 97.4082L9.0205 96.9352L12.7055 104.677L13.8377 96.1829L16.8675 95.7094ZM153.908 106.677C152.65 106.472 151.701 105.76 151.857 104.371L149.221 103.942C148.779 106.768 150.904 108.405 153.454 108.82C155.818 109.204 158.413 108.597 158.856 105.876C159.281 103.26 157.012 102.337 155.168 101.587C153.908 101.074 152.847 100.642 152.984 99.8066C153.125 98.9389 154.033 98.8254 154.748 98.9417C155.819 99.1154 156.637 99.5629 156.576 100.792L159.211 101.221C159.555 98.5715 157.584 97.1687 155.204 96.7814C153.095 96.4381 150.702 97.2016 150.315 99.5819C149.912 102.055 152.068 102.975 153.879 103.749C155.193 104.309 156.327 104.793 156.173 105.736C156.004 106.773 154.708 106.807 153.908 106.677ZM146.409 99.4017C146.558 98.3445 145.865 97.5857 145.114 97.4796L143.75 97.2873L143.266 100.716L144.631 100.908C145.381 101.014 146.253 100.511 146.409 99.4017Z" fill="#F2CD00"/>
</g>
<defs>
<clipPath id="clip0_6_2">
<rect width="164" height="119.525" fill="white"/>
</clipPath>
</defs>
</svg>
